:SAMPLES-PER-SECOND 30
:FULLY-SPECIFIED
:DEGREES
1593
root  11.4897 38.505 12.0031 172.747 38.0577 179.085
RightUpLeg  19.6527 -29.9646 -11.5889
RightLeg  28.7122 -1.76675 -1.76894
RightFoot  -16.2669 0.489737 15.0034
RightToes  0.000482159 0.542163 -0.142577
Spine  4.00094 5.9549 7.80907
Spine1  9.58854 9.07067 -8.33741
HEad  -6.30071 33.0301 -8.06496
LeftShoulder1  7.08161 -10.6275 -43.5933
LeftArm  -10.4723 26.9087 -25.5339
LeftForeArm  32.1294 -21.7436 -3.20842
LeftHand  -0.25398 0.0180481 5.50724
RightShoulder  5.59848 9.23616 37.9067
RightArm  -4.87333 -3.71956 32.2202
RightForeArm  1.03982 13.6299 6.89654
RightHand  -2.68906 8.36939 -22.8279
LeftUpLeg  -11.766 17.004 -10.684
LeftLeg  9.33927 32.9804 -2.31426
LeftFoot  -2.70701 -1.84531 24.1443
LeftToes  1.06246e-005 4.65854e-005 -8.18502e-006
1594
root  12.7376 38.5159 11.2899 171.44 33.5618 176.927
RightUpLeg  14.3303 -29.11 -12.9109
RightLeg  41.195 -3.82807 -3.89141
RightFoot  -5.09432 -0.954143 18.0341
RightToes  0.000482159 0.542163 -0.142577
Spine  4.57698 5.74919 5.47472
Spine1  8.38501 9.01766 -9.43017
HEad  -7.26015 35.4575 -8.37009
LeftShoulder1  7.0037 -10.5379 -43.3763
LeftArm  -10.99 26.6505 -24.7928
LeftForeArm  31.4314 -21.3568 -3.21211
LeftHand  -0.25398 0.0180481 5.50724
RightShoulder  5.6882 9.41075 38.001
RightArm  -9.28494 -5.44867 34.1407
RightForeArm  4.02279 10.674 6.78138
RightHand  -2.5116 7.80213 -22.2566
LeftUpLeg  -12.2287 25.0879 -14.899
LeftLeg  14.2059 20.1211 2.31216
LeftFoot  -4.65698 -1.19222 20.7485
LeftToes  1.06246e-005 4.65854e-005 -8.18502e-006
1595
root  13.8078 38.5288 10.7054 171.291 28.2127 175.482
RightUpLeg  6.07758 -29.0038 -13.3029
RightLeg  53.6119 -3.29606 -5.08535
RightFoot  10.0529 -2.50357 13.731
RightToes  0.000482159 0.542163 -0.142577
Spine  5.51008 5.26894 4.16786
Spine1  7.0507 8.68997 -11.0139
HEad  -8.4867 37.2535 -9.69196
LeftShoulder1  6.94599 -10.4792 -43.189
LeftArm  -11.5104 25.8684 -24.6332
LeftForeArm  31.1759 -21.5582 -3.22114
LeftHand  -0.25398 0.0180481 5.50724
RightShoulder  5.55481 9.3515 37.1955
RightArm  -11.2593 -7.42843 36.8694
RightForeArm  5.73056 9.35318 6.41857
RightHand  -2.38705 7.34682 -21.9212
LeftUpLeg  -11.4539 23.826 -16.5452
LeftLeg  15.9651 16.7766 3.36182
LeftFoot  -5.66232 -0.976588 20.1948
LeftToes  1.06246e-005 4.65854e-005 -8.18502e-006
1596
root  14.7994 38.5025 10.251 171.454 22.744 174.469
RightUpLeg  -2.19295 -27.8184 -12.9558
RightLeg  62.5112 -1.31074 -3.29501
RightFoot  18.6795 -2.25813 8.75152
RightToes  0.000482159 0.542163 -0.142577
Spine  6.94998 5.03282 3.18434
Spine1  6.21345 8.49025 -12.3118
HEad  -10.3572 38.0687 -11.8649
LeftShoulder1  6.92996 -10.4487 -43.1829
LeftArm  -12.2483 24.593 -25.15
LeftForeArm  31.4713 -22.8541 -3.32107
LeftHand  -0.25398 0.0180481 5.50724
RightShoulder  5.51363 9.38979 36.7609
RightArm  -10.4574 -9.63666 38.4446
RightForeArm  4.91924 10.6256 6.46726
RightHand  -2.49519 7.59219 -22.4516
LeftUpLeg  -10.404 20.5024 -17.0506
LeftLeg  17.5935 15.2377 3.45644
LeftFoot  -7.00377 -0.726978 20.0389
LeftToes  1.06246e-005 4.65854e-005 -8.18502e-006
1597
root  15.8359 38.6086 9.80326 171.837 17.1099 174.245
RightUpLeg  -8.62819 -25.588 -12.4932
RightLeg  67.2484 -0.253554 -1.41887
RightFoot  18.291 -1.89519 7.65572
RightToes  0.000482159 0.542163 -0.142577
Spine  8.29956 4.89406 2.79168
Spine1  6.00033 8.36057 -12.9008
HEad  -12.2408 37.8401 -14.0176
LeftShoulder1  6.93802 -10.4133 -43.3521
LeftArm  -12.802 23.1402 -26.0488
LeftForeArm  32.1301 -25.0872 -3.67423
LeftHand  -0.25398 0.0180481 5.50724
RightShoulder  5.64922 9.599 37.1024
RightArm  -7.1363 -11.6466 38.507
RightForeArm  2.6686 13.5968 6.50444
RightHand  -2.79792 8.44848 -23.5795
LeftUpLeg  -8.97334 17.3913 -16.4754
LeftLeg  18.6783 12.5045 3.16445
LeftFoot  -7.82947 -0.50454 17.8843
LeftToes  1.06246e-005 4.65854e-005 -8.18502e-006
1598
root  16.8933 38.8093 9.33324 172.487 10.9836 174.586
RightUpLeg  -12.8994 -22.5827 -12.7652
RightLeg  67.651 -0.218051 -1.29775
RightFoot  14.259 -2.08847 9.62324
RightToes  0.000482159 0.542163 -0.142577
Spine  9.16833 4.65177 2.8083
Spine1  6.13008 8.08315 -12.9137
HEad  -13.123 36.8041 -15.2595
LeftShoulder1  6.95277 -10.3686 -43.5969
LeftArm  -12.4217 21.8336 -27.0057
LeftForeArm  32.9387 -27.5474 -4.16385
LeftHand  -0.25398 0.0180481 5.50724
RightShoulder  5.72834 9.71271 37.3235
RightArm  -3.09768 -13.2938 38.3641
RightForeArm  1.18627 16.6025 6.05684
RightHand  -3.10238 9.30678 -24.5853
LeftUpLeg  -7.48434 13.9072 -15.312
LeftLeg  19.1462 9.75333 2.73522
LeftFoot  -7.9196 -0.422984 15.6661
LeftToes  1.06246e-005 4.65854e-005 -8.18502e-006
1599
root  17.96 38.996 8.8631 173.198 4.51169 174.99
RightUpLeg  -15.376 -18.6282 -14.0393
RightLeg  64.5224 -0.646518 -2.07355
RightFoot  11.1994 -2.15405 11.1401
RightToes  0.000482159 0.542163 -0.142577
Spine  9.80429 4.41197 2.59769
Spine1  6.10758 7.65667 -12.4844
HEad  -12.9071 35.3316 -15.3778
LeftShoulder1  6.96047 -10.324 -43.7959
LeftArm  -10.967 20.7857 -27.8929
LeftForeArm  33.9263 -29.7469 -4.60057
LeftHand  -0.25398 0.0180481 5.50724
RightShoulder  5.63193 9.6218 36.9018
RightArm  -0.124095 -14.727 38.7633
RightForeArm  0.758414 18.8537 5.51274
RightHand  -3.25508 9.70274 -25.095
LeftUpLeg  -6.21357 10.2238 -14.0027
LeftLeg  19.3937 7.26383 2.06684
LeftFoot  -8.05632 -0.378138 14.7974
LeftToes  1.06246e-005 4.65854e-005 -8.18502e-006
1600
root  19.0592 39.1958 8.38945 173.859 -2.04146 175.264
RightUpLeg  -16.2176 -13.2968 -16.0269
RightLeg  58.6952 -1.29205 -2.75245
RightFoot  8.60267 -1.84902 10.8228
RightToes  0.000482159 0.542163 -0.142577
Spine  10.4515 4.20793 2.03466
Spine1  5.83032 7.1738 -11.6723
HEad  -12.3537 33.6152 -14.751
LeftShoulder1  6.9514 -10.2915 -43.8438
LeftArm  -8.9677 19.8225 -28.6551
LeftForeArm  35.0144 -31.4861 -4.94318
LeftHand  -0.25398 0.0180481 5.50724
RightShoulder  5.52058 9.51683 36.4079
RightArm  1.82057 -15.9085 39.2001
RightForeArm  -0.10194 20.5946 5.16927
RightHand  -3.26472 9.66145 -25.2294
LeftUpLeg  -5.04911 6.9243 -12.5208
LeftLeg  19.217 3.90501 0.950724
LeftFoot  -8.11342 -0.334002 13.5496
LeftToes  1.06246e-005 4.65854e-005 -8.18502e-006
1601
root  20.2037 39.3377 7.88035 174.628 -8.81388 175.365
RightUpLeg  -15.4327 -6.75926 -18.6275
RightLeg  50.8794 -1.56599 -2.44826
RightFoot  4.50151 -1.52502 11.1906
RightToes  0.000482159 0.542163 -0.142577
Spine  10.8372 3.92937 1.22302
Spine1  5.75176 6.60376 -10.8512
HEad  -11.9346 31.5251 -13.7648
LeftShoulder1  6.94638 -10.3056 -43.7638
LeftArm  -7.10147 18.7315 -29.2211
LeftForeArm  35.875 -32.5162 -5.14062
LeftHand  -0.25398 0.0180481 5.50724
RightShoulder  5.49719 9.49856 36.2904
RightArm  2.95448 -16.6575 39.2478
RightForeArm  -1.33991 21.9455 5.04899
RightHand  -3.23511 9.47427 -25.3094
LeftUpLeg  -4.66364 3.55884 -11.0386
LeftLeg  19.6193 0.0727696 -0.107802
LeftFoot  -8.17511 -0.252082 10.8358
LeftToes  1.06246e-005 4.65854e-005 -8.18502e-006
1602
root  21.3778 39.3433 7.27784 175.584 -16.111 175.338
RightUpLeg  -13.2239 0.133459 -21.4352
RightLeg  41.8384 -0.149777 -0.478352
RightFoot  0.153438 -1.19863 11.8268
RightToes  0.000482159 0.542163 -0.142577
Spine  10.6455 3.48834 0.261606
Spine1  6.08612 5.85462 -10.1469
HEad  -11.4257 28.8811 -12.5339
LeftShoulder1  6.967 -10.3694 -43.6882
LeftArm  -5.83705 17.6162 -29.6042
LeftForeArm  36.3521 -32.7072 -5.16102
LeftHand  -0.25398 0.0180481 5.50724
RightShoulder  5.45576 9.4426 36.1559
RightArm  3.3185 -17.1522 39.2707
RightForeArm  -2.15122 22.7854 5.07126
RightHand  -3.25899 9.42383 -25.5682
LeftUpLeg  -5.33897 -1.01234 -9.70691
LeftLeg  21.2782 -2.55198 -0.806082
LeftFoot  -8.87991 -0.122329 8.15119
LeftToes  1.06246e-005 4.65854e-005 -8.18502e-006
1603
root  22.5226 39.2639 6.5764 176.662 -23.7967 175.066
RightUpLeg  -10.0475 7.08369 -23.7857
RightLeg  32.6217 3.50679 2.15854
RightFoot  -2.312 -0.888166 11.0074
RightToes  0.000482159 0.542163 -0.142577
Spine  10.085 3.00123 -0.867182
Spine1  6.49717 4.99162 -9.08791
HEad  -10.5874 25.7172 -11.1091
LeftShoulder1  6.97318 -10.3917 -43.6553
LeftArm  -5.13675 16.7185 -29.8643
LeftForeArm  36.4571 -32.3527 -5.07071
LeftHand  -0.25398 0.0180481 5.50724
RightShoulder  5.3302 9.29307 35.6783
RightArm  3.25063 -17.8676 39.5028
RightForeArm  -2.66155 23.3471 5.14752
RightHand  -3.36998 9.65126 -26.0169
LeftUpLeg  -6.39874 -7.04432 -8.53155
LeftLeg  23.1979 -4.03682 -1.53957
LeftFoot  -10.0969 -0.00935524 6.49216
LeftToes  1.06246e-005 4.65854e-005 -8.18502e-006
